<mxfile host="app.diagrams.net" agent="Mozilla/5.0 (Windows NT 10.0; Win64; x64) AppleWebKit/537.36 (KHTML, like Gecko) Chrome/131.0.0.0 Safari/537.36 Edg/131.0.0.0" version="25.0.3">
  <diagram name="Page-1" id="mw299rPhLPCByi8XiqZ0">
    <mxGraphModel dx="3827" dy="2714" grid="1" gridSize="10" guides="1" tooltips="1" connect="1" arrows="1" fold="1" page="1" pageScale="1" pageWidth="850" pageHeight="1100" math="0" shadow="0">
      <root>
        <mxCell id="0" />
        <mxCell id="1" parent="0" />
        <mxCell id="AAZVMAnwfbZu5u0q_cqS-1" value="" style="edgeStyle=orthogonalEdgeStyle;rounded=0;orthogonalLoop=1;jettySize=auto;html=1;" parent="1" source="AAZVMAnwfbZu5u0q_cqS-2" target="AAZVMAnwfbZu5u0q_cqS-4" edge="1">
          <mxGeometry relative="1" as="geometry" />
        </mxCell>
        <mxCell id="AAZVMAnwfbZu5u0q_cqS-2" value="&lt;font data-font-src=&quot;https://fonts.googleapis.com/css?family=Sarabun&quot; face=&quot;Sarabun&quot;&gt;Start&lt;/font&gt;" style="ellipse;whiteSpace=wrap;html=1;" parent="1" vertex="1">
          <mxGeometry x="-544.0000000000001" y="-955" width="130" height="30" as="geometry" />
        </mxCell>
        <mxCell id="AAZVMAnwfbZu5u0q_cqS-3" value="" style="edgeStyle=orthogonalEdgeStyle;rounded=0;orthogonalLoop=1;jettySize=auto;html=1;" parent="1" source="AAZVMAnwfbZu5u0q_cqS-4" target="AAZVMAnwfbZu5u0q_cqS-6" edge="1">
          <mxGeometry relative="1" as="geometry" />
        </mxCell>
        <mxCell id="AAZVMAnwfbZu5u0q_cqS-4" value="เปิดไฟล์&amp;nbsp;a15-7.txt&amp;nbsp;&lt;span style=&quot;color: rgba(0, 0, 0, 0); font-family: monospace; font-size: 0px; text-align: start; text-wrap-mode: nowrap;&quot;&gt;%3CmxGraphModel%3E%3Croot%3E%3CmxCell%20id%3D%220%22%2F%3E%3CmxCell%20id%3D%221%22%20parent%3D%220%22%2F%3E%3CmxCell%20id%3D%222%22%20value%3D%22%E0%B8%81%E0%B8%B3%E0%B8%AB%E0%B8%99%E0%B8%94%E0%B8%95%E0%B8%B1%E0%B8%A7%E0%B9%81%E0%B8%9B%E0%B8%A3%20arr%22%20style%3D%22rounded%3D0%3BwhiteSpace%3Dwrap%3Bhtml%3D1%3B%22%20vertex%3D%221%22%20parent%3D%221%22%3E%3CmxGeometry%20x%3D%22-680%22%20y%3D%22-980%22%20width%3D%22160%22%20height%3D%2240%22%20as%3D%22geometry%22%2F%3E%3C%2FmxCell%3E%3C%2Froot%3E%3C%2FmxGraphModel%3E&lt;/span&gt;" style="rounded=0;whiteSpace=wrap;html=1;" parent="1" vertex="1">
          <mxGeometry x="-560" y="-895" width="160" height="40" as="geometry" />
        </mxCell>
        <mxCell id="AAZVMAnwfbZu5u0q_cqS-5" value="" style="edgeStyle=orthogonalEdgeStyle;rounded=0;orthogonalLoop=1;jettySize=auto;html=1;" parent="1" source="AAZVMAnwfbZu5u0q_cqS-6" target="AAZVMAnwfbZu5u0q_cqS-10" edge="1">
          <mxGeometry relative="1" as="geometry" />
        </mxCell>
        <mxCell id="AAZVMAnwfbZu5u0q_cqS-83" value="" style="edgeStyle=orthogonalEdgeStyle;rounded=0;orthogonalLoop=1;jettySize=auto;html=1;" parent="1" source="AAZVMAnwfbZu5u0q_cqS-6" target="AAZVMAnwfbZu5u0q_cqS-80" edge="1">
          <mxGeometry relative="1" as="geometry" />
        </mxCell>
        <mxCell id="AAZVMAnwfbZu5u0q_cqS-6" value="เปิดได้หรือไม่" style="rhombus;whiteSpace=wrap;html=1;" parent="1" vertex="1">
          <mxGeometry x="-544" y="-825" width="128" height="80" as="geometry" />
        </mxCell>
        <mxCell id="AAZVMAnwfbZu5u0q_cqS-7" value="" style="edgeStyle=orthogonalEdgeStyle;rounded=0;orthogonalLoop=1;jettySize=auto;html=1;" parent="1" source="AAZVMAnwfbZu5u0q_cqS-8" target="AAZVMAnwfbZu5u0q_cqS-16" edge="1">
          <mxGeometry relative="1" as="geometry" />
        </mxCell>
        <mxCell id="AAZVMAnwfbZu5u0q_cqS-8" value="อ่านไฟล์&amp;nbsp;&amp;nbsp;a15-7.txt&amp;nbsp;" style="rounded=0;whiteSpace=wrap;html=1;" parent="1" vertex="1">
          <mxGeometry x="-559.5" y="-485" width="160" height="40" as="geometry" />
        </mxCell>
        <mxCell id="0AfvxG6xlVX3FID8-RaT-143" style="edgeStyle=orthogonalEdgeStyle;rounded=0;orthogonalLoop=1;jettySize=auto;html=1;entryX=1;entryY=0.5;entryDx=0;entryDy=0;" edge="1" parent="1" source="AAZVMAnwfbZu5u0q_cqS-10" target="0AfvxG6xlVX3FID8-RaT-141">
          <mxGeometry relative="1" as="geometry">
            <Array as="points">
              <mxPoint x="-120" y="925" />
            </Array>
          </mxGeometry>
        </mxCell>
        <mxCell id="AAZVMAnwfbZu5u0q_cqS-10" value="Err" style="rounded=0;whiteSpace=wrap;html=1;shape=parallelogram;perimeter=parallelogramPerimeter;fixedSize=1;" parent="1" vertex="1">
          <mxGeometry x="-240" y="-805" width="160" height="40" as="geometry" />
        </mxCell>
        <mxCell id="AAZVMAnwfbZu5u0q_cqS-12" value="T" style="text;html=1;align=center;verticalAlign=middle;resizable=0;points=[];autosize=1;strokeColor=none;fillColor=none;" parent="1" vertex="1">
          <mxGeometry x="-470" y="-755" width="30" height="30" as="geometry" />
        </mxCell>
        <mxCell id="AAZVMAnwfbZu5u0q_cqS-13" value="F" style="text;html=1;align=center;verticalAlign=middle;resizable=0;points=[];autosize=1;strokeColor=none;fillColor=none;" parent="1" vertex="1">
          <mxGeometry x="-420" y="-815" width="30" height="30" as="geometry" />
        </mxCell>
        <mxCell id="AAZVMAnwfbZu5u0q_cqS-14" value="" style="edgeStyle=orthogonalEdgeStyle;rounded=0;orthogonalLoop=1;jettySize=auto;html=1;" parent="1" source="AAZVMAnwfbZu5u0q_cqS-15" target="AAZVMAnwfbZu5u0q_cqS-8" edge="1">
          <mxGeometry relative="1" as="geometry" />
        </mxCell>
        <mxCell id="AAZVMAnwfbZu5u0q_cqS-15" value="" style="ellipse;whiteSpace=wrap;html=1;aspect=fixed;" parent="1" vertex="1">
          <mxGeometry x="-494.5" y="-555" width="30" height="30" as="geometry" />
        </mxCell>
        <mxCell id="AAZVMAnwfbZu5u0q_cqS-16" value="เอาข้อความใน&amp;nbsp;&amp;nbsp;a15-7.txt&amp;nbsp; ใส่ stuck&amp;nbsp; num" style="rounded=0;whiteSpace=wrap;html=1;" parent="1" vertex="1">
          <mxGeometry x="-559.5" y="-405" width="160" height="40" as="geometry" />
        </mxCell>
        <mxCell id="AAZVMAnwfbZu5u0q_cqS-17" value="" style="edgeStyle=orthogonalEdgeStyle;rounded=0;orthogonalLoop=1;jettySize=auto;html=1;" parent="1" target="AAZVMAnwfbZu5u0q_cqS-18" edge="1">
          <mxGeometry relative="1" as="geometry">
            <mxPoint x="-478.5" y="-365" as="sourcePoint" />
          </mxGeometry>
        </mxCell>
        <mxCell id="AAZVMAnwfbZu5u0q_cqS-18" value="เอาข้อความใน&amp;nbsp;&amp;nbsp;a15-7.txt&amp;nbsp; ใส่ stuck&amp;nbsp; Name" style="rounded=0;whiteSpace=wrap;html=1;" parent="1" vertex="1">
          <mxGeometry x="-558.5" y="-325" width="160" height="40" as="geometry" />
        </mxCell>
        <mxCell id="AAZVMAnwfbZu5u0q_cqS-19" value="" style="edgeStyle=orthogonalEdgeStyle;rounded=0;orthogonalLoop=1;jettySize=auto;html=1;" parent="1" target="AAZVMAnwfbZu5u0q_cqS-20" edge="1">
          <mxGeometry relative="1" as="geometry">
            <mxPoint x="-478.5" y="-285" as="sourcePoint" />
          </mxGeometry>
        </mxCell>
        <mxCell id="AAZVMAnwfbZu5u0q_cqS-85" value="" style="edgeStyle=orthogonalEdgeStyle;rounded=0;orthogonalLoop=1;jettySize=auto;html=1;" parent="1" source="AAZVMAnwfbZu5u0q_cqS-20" target="AAZVMAnwfbZu5u0q_cqS-84" edge="1">
          <mxGeometry relative="1" as="geometry" />
        </mxCell>
        <mxCell id="AAZVMAnwfbZu5u0q_cqS-20" value="เอาข้อความใน&amp;nbsp;&amp;nbsp;a15-6.txt&amp;nbsp; ใส่ stuck&amp;nbsp;Birthday txt" style="rounded=0;whiteSpace=wrap;html=1;" parent="1" vertex="1">
          <mxGeometry x="-558" y="-250" width="160" height="40" as="geometry" />
        </mxCell>
        <mxCell id="AAZVMAnwfbZu5u0q_cqS-24" value="" style="edgeStyle=orthogonalEdgeStyle;rounded=0;orthogonalLoop=1;jettySize=auto;html=1;" parent="1" source="AAZVMAnwfbZu5u0q_cqS-26" target="AAZVMAnwfbZu5u0q_cqS-32" edge="1">
          <mxGeometry relative="1" as="geometry" />
        </mxCell>
        <mxCell id="0AfvxG6xlVX3FID8-RaT-140" value="" style="edgeStyle=orthogonalEdgeStyle;rounded=0;orthogonalLoop=1;jettySize=auto;html=1;" edge="1" parent="1" source="AAZVMAnwfbZu5u0q_cqS-26" target="0AfvxG6xlVX3FID8-RaT-139">
          <mxGeometry relative="1" as="geometry" />
        </mxCell>
        <mxCell id="AAZVMAnwfbZu5u0q_cqS-26" value="ครบทุกตัวแล้วหรือไม่" style="rhombus;whiteSpace=wrap;html=1;" parent="1" vertex="1">
          <mxGeometry x="-542" y="670" width="128" height="80" as="geometry" />
        </mxCell>
        <mxCell id="AAZVMAnwfbZu5u0q_cqS-115" style="edgeStyle=orthogonalEdgeStyle;rounded=0;orthogonalLoop=1;jettySize=auto;html=1;entryX=0;entryY=0.5;entryDx=0;entryDy=0;" parent="1" source="AAZVMAnwfbZu5u0q_cqS-32" target="AAZVMAnwfbZu5u0q_cqS-15" edge="1">
          <mxGeometry relative="1" as="geometry">
            <Array as="points">
              <mxPoint x="-790" y="710" />
              <mxPoint x="-790" y="-540" />
            </Array>
          </mxGeometry>
        </mxCell>
        <mxCell id="AAZVMAnwfbZu5u0q_cqS-32" value="เพิ่มรอบ stuck&amp;nbsp;" style="rounded=0;whiteSpace=wrap;html=1;" parent="1" vertex="1">
          <mxGeometry x="-740" y="690" width="160" height="40" as="geometry" />
        </mxCell>
        <mxCell id="AAZVMAnwfbZu5u0q_cqS-33" value="T" style="text;html=1;align=center;verticalAlign=middle;resizable=0;points=[];autosize=1;strokeColor=none;fillColor=none;" parent="1" vertex="1">
          <mxGeometry x="-448" y="730" width="30" height="30" as="geometry" />
        </mxCell>
        <mxCell id="AAZVMAnwfbZu5u0q_cqS-34" value="F" style="text;html=1;align=center;verticalAlign=middle;resizable=0;points=[];autosize=1;strokeColor=none;fillColor=none;" parent="1" vertex="1">
          <mxGeometry x="-558" y="670" width="30" height="30" as="geometry" />
        </mxCell>
        <mxCell id="AAZVMAnwfbZu5u0q_cqS-61" value="" style="edgeStyle=orthogonalEdgeStyle;rounded=0;orthogonalLoop=1;jettySize=auto;html=1;" parent="1" source="AAZVMAnwfbZu5u0q_cqS-62" target="AAZVMAnwfbZu5u0q_cqS-64" edge="1">
          <mxGeometry relative="1" as="geometry" />
        </mxCell>
        <mxCell id="AAZVMAnwfbZu5u0q_cqS-62" value="start stuck user" style="shape=process;whiteSpace=wrap;html=1;backgroundOutline=1;" parent="1" vertex="1">
          <mxGeometry x="50" y="-1080" width="120" height="65" as="geometry" />
        </mxCell>
        <mxCell id="AAZVMAnwfbZu5u0q_cqS-63" value="" style="edgeStyle=orthogonalEdgeStyle;rounded=0;orthogonalLoop=1;jettySize=auto;html=1;" parent="1" source="AAZVMAnwfbZu5u0q_cqS-64" target="AAZVMAnwfbZu5u0q_cqS-66" edge="1">
          <mxGeometry relative="1" as="geometry" />
        </mxCell>
        <mxCell id="AAZVMAnwfbZu5u0q_cqS-64" value="กำหนดตัวแปร num" style="rounded=0;whiteSpace=wrap;html=1;" parent="1" vertex="1">
          <mxGeometry x="30" y="-985" width="160" height="40" as="geometry" />
        </mxCell>
        <mxCell id="AAZVMAnwfbZu5u0q_cqS-65" value="" style="edgeStyle=orthogonalEdgeStyle;rounded=0;orthogonalLoop=1;jettySize=auto;html=1;" parent="1" source="AAZVMAnwfbZu5u0q_cqS-66" target="AAZVMAnwfbZu5u0q_cqS-69" edge="1">
          <mxGeometry relative="1" as="geometry" />
        </mxCell>
        <mxCell id="AAZVMAnwfbZu5u0q_cqS-66" value="กำหนดตัวแปร Name" style="rounded=0;whiteSpace=wrap;html=1;" parent="1" vertex="1">
          <mxGeometry x="30" y="-915" width="160" height="40" as="geometry" />
        </mxCell>
        <mxCell id="AAZVMAnwfbZu5u0q_cqS-68" value="" style="edgeStyle=orthogonalEdgeStyle;rounded=0;orthogonalLoop=1;jettySize=auto;html=1;" parent="1" source="AAZVMAnwfbZu5u0q_cqS-69" target="AAZVMAnwfbZu5u0q_cqS-73" edge="1">
          <mxGeometry relative="1" as="geometry" />
        </mxCell>
        <mxCell id="AAZVMAnwfbZu5u0q_cqS-69" value="กำหนดตัวแปร Birthday" style="rounded=0;whiteSpace=wrap;html=1;" parent="1" vertex="1">
          <mxGeometry x="30" y="-845" width="160" height="40" as="geometry" />
        </mxCell>
        <mxCell id="AAZVMAnwfbZu5u0q_cqS-73" value="กำหนดตัวแปร convert" style="rounded=0;whiteSpace=wrap;html=1;" parent="1" vertex="1">
          <mxGeometry x="30" y="-780" width="160" height="40" as="geometry" />
        </mxCell>
        <mxCell id="AAZVMAnwfbZu5u0q_cqS-74" value="" style="edgeStyle=orthogonalEdgeStyle;rounded=0;orthogonalLoop=1;jettySize=auto;html=1;" parent="1" target="AAZVMAnwfbZu5u0q_cqS-75" edge="1">
          <mxGeometry relative="1" as="geometry">
            <mxPoint x="110" y="-740" as="sourcePoint" />
          </mxGeometry>
        </mxCell>
        <mxCell id="AAZVMAnwfbZu5u0q_cqS-75" value="กำหนดตัวแปร Birthdayint" style="rounded=0;whiteSpace=wrap;html=1;" parent="1" vertex="1">
          <mxGeometry x="30" y="-715" width="160" height="40" as="geometry" />
        </mxCell>
        <mxCell id="AAZVMAnwfbZu5u0q_cqS-79" value="" style="edgeStyle=orthogonalEdgeStyle;rounded=0;orthogonalLoop=1;jettySize=auto;html=1;" parent="1" source="AAZVMAnwfbZu5u0q_cqS-76" target="AAZVMAnwfbZu5u0q_cqS-78" edge="1">
          <mxGeometry relative="1" as="geometry" />
        </mxCell>
        <mxCell id="AAZVMAnwfbZu5u0q_cqS-76" value="กำหนดตัวแปร Output" style="rounded=0;whiteSpace=wrap;html=1;" parent="1" vertex="1">
          <mxGeometry x="30" y="-650" width="160" height="40" as="geometry" />
        </mxCell>
        <mxCell id="AAZVMAnwfbZu5u0q_cqS-77" value="" style="edgeStyle=orthogonalEdgeStyle;rounded=0;orthogonalLoop=1;jettySize=auto;html=1;" parent="1" target="AAZVMAnwfbZu5u0q_cqS-76" edge="1">
          <mxGeometry relative="1" as="geometry">
            <mxPoint x="110" y="-675" as="sourcePoint" />
          </mxGeometry>
        </mxCell>
        <mxCell id="AAZVMAnwfbZu5u0q_cqS-78" value="start stuck user" style="shape=process;whiteSpace=wrap;html=1;backgroundOutline=1;" parent="1" vertex="1">
          <mxGeometry x="50" y="-572.5" width="120" height="65" as="geometry" />
        </mxCell>
        <mxCell id="AAZVMAnwfbZu5u0q_cqS-81" value="" style="edgeStyle=orthogonalEdgeStyle;rounded=0;orthogonalLoop=1;jettySize=auto;html=1;" parent="1" source="AAZVMAnwfbZu5u0q_cqS-80" target="AAZVMAnwfbZu5u0q_cqS-15" edge="1">
          <mxGeometry relative="1" as="geometry" />
        </mxCell>
        <mxCell id="AAZVMAnwfbZu5u0q_cqS-80" value="เว้นบรรทัดแรก" style="rounded=0;whiteSpace=wrap;html=1;" parent="1" vertex="1">
          <mxGeometry x="-569.25" y="-675" width="178.5" height="60" as="geometry" />
        </mxCell>
        <mxCell id="AAZVMAnwfbZu5u0q_cqS-114" value="" style="edgeStyle=orthogonalEdgeStyle;rounded=0;orthogonalLoop=1;jettySize=auto;html=1;" parent="1" source="AAZVMAnwfbZu5u0q_cqS-84" target="AAZVMAnwfbZu5u0q_cqS-109" edge="1">
          <mxGeometry relative="1" as="geometry" />
        </mxCell>
        <mxCell id="AAZVMAnwfbZu5u0q_cqS-84" value="แยก Birthday txt ทีละตัว" style="rounded=0;whiteSpace=wrap;html=1;" parent="1" vertex="1">
          <mxGeometry x="-558" y="-170" width="160" height="40" as="geometry" />
        </mxCell>
        <mxCell id="AAZVMAnwfbZu5u0q_cqS-89" value="" style="edgeStyle=orthogonalEdgeStyle;rounded=0;orthogonalLoop=1;jettySize=auto;html=1;" parent="1" source="AAZVMAnwfbZu5u0q_cqS-86" target="AAZVMAnwfbZu5u0q_cqS-88" edge="1">
          <mxGeometry relative="1" as="geometry" />
        </mxCell>
        <mxCell id="AAZVMAnwfbZu5u0q_cqS-91" value="" style="edgeStyle=orthogonalEdgeStyle;rounded=0;orthogonalLoop=1;jettySize=auto;html=1;" parent="1" source="AAZVMAnwfbZu5u0q_cqS-86" target="AAZVMAnwfbZu5u0q_cqS-90" edge="1">
          <mxGeometry relative="1" as="geometry" />
        </mxCell>
        <mxCell id="AAZVMAnwfbZu5u0q_cqS-86" value="Birthday txt&lt;span style=&quot;font-size: 10px;&quot;&gt;&amp;nbsp;มี - หรือไม่&lt;/span&gt;" style="rhombus;whiteSpace=wrap;html=1;" parent="1" vertex="1">
          <mxGeometry x="-543" y="-20" width="128" height="80" as="geometry" />
        </mxCell>
        <mxCell id="AAZVMAnwfbZu5u0q_cqS-97" style="edgeStyle=orthogonalEdgeStyle;rounded=0;orthogonalLoop=1;jettySize=auto;html=1;entryX=1;entryY=0.5;entryDx=0;entryDy=0;" parent="1" source="AAZVMAnwfbZu5u0q_cqS-88" target="AAZVMAnwfbZu5u0q_cqS-94" edge="1">
          <mxGeometry relative="1" as="geometry">
            <Array as="points">
              <mxPoint x="-190" y="20" />
              <mxPoint x="-190" y="195" />
            </Array>
          </mxGeometry>
        </mxCell>
        <mxCell id="AAZVMAnwfbZu5u0q_cqS-88" value="เก็บไว้ใน convert" style="rounded=0;whiteSpace=wrap;html=1;" parent="1" vertex="1">
          <mxGeometry x="-370" width="160" height="40" as="geometry" />
        </mxCell>
        <mxCell id="AAZVMAnwfbZu5u0q_cqS-95" value="" style="edgeStyle=orthogonalEdgeStyle;rounded=0;orthogonalLoop=1;jettySize=auto;html=1;" parent="1" source="AAZVMAnwfbZu5u0q_cqS-90" target="AAZVMAnwfbZu5u0q_cqS-94" edge="1">
          <mxGeometry relative="1" as="geometry" />
        </mxCell>
        <mxCell id="AAZVMAnwfbZu5u0q_cqS-90" value="ขยับ convert ไป 1 ช่อง" style="rounded=0;whiteSpace=wrap;html=1;" parent="1" vertex="1">
          <mxGeometry x="-558.5" y="100" width="160" height="40" as="geometry" />
        </mxCell>
        <mxCell id="AAZVMAnwfbZu5u0q_cqS-106" value="" style="edgeStyle=orthogonalEdgeStyle;rounded=0;orthogonalLoop=1;jettySize=auto;html=1;" parent="1" source="AAZVMAnwfbZu5u0q_cqS-92" target="AAZVMAnwfbZu5u0q_cqS-105" edge="1">
          <mxGeometry relative="1" as="geometry" />
        </mxCell>
        <mxCell id="AAZVMAnwfbZu5u0q_cqS-92" value="แปลง convert เป็นจำนวนเต็ม" style="rounded=0;whiteSpace=wrap;html=1;" parent="1" vertex="1">
          <mxGeometry x="-558.5" y="250" width="160" height="40" as="geometry" />
        </mxCell>
        <mxCell id="AAZVMAnwfbZu5u0q_cqS-96" value="" style="edgeStyle=orthogonalEdgeStyle;rounded=0;orthogonalLoop=1;jettySize=auto;html=1;" parent="1" source="AAZVMAnwfbZu5u0q_cqS-94" target="AAZVMAnwfbZu5u0q_cqS-92" edge="1">
          <mxGeometry relative="1" as="geometry" />
        </mxCell>
        <mxCell id="AAZVMAnwfbZu5u0q_cqS-94" value="" style="ellipse;whiteSpace=wrap;html=1;aspect=fixed;" parent="1" vertex="1">
          <mxGeometry x="-493" y="180" width="30" height="30" as="geometry" />
        </mxCell>
        <mxCell id="0AfvxG6xlVX3FID8-RaT-76" value="" style="edgeStyle=orthogonalEdgeStyle;rounded=0;orthogonalLoop=1;jettySize=auto;html=1;" edge="1" parent="1" source="AAZVMAnwfbZu5u0q_cqS-98" target="AAZVMAnwfbZu5u0q_cqS-117">
          <mxGeometry relative="1" as="geometry" />
        </mxCell>
        <mxCell id="AAZVMAnwfbZu5u0q_cqS-98" value="เก็บไว้ใน stuck Birthdayint" style="rounded=0;whiteSpace=wrap;html=1;" parent="1" vertex="1">
          <mxGeometry x="-558" y="435" width="160.75" height="40" as="geometry" />
        </mxCell>
        <mxCell id="AAZVMAnwfbZu5u0q_cqS-101" value="T" style="text;html=1;align=center;verticalAlign=middle;resizable=0;points=[];autosize=1;strokeColor=none;fillColor=none;" parent="1" vertex="1">
          <mxGeometry x="-480" y="60" width="30" height="30" as="geometry" />
        </mxCell>
        <mxCell id="AAZVMAnwfbZu5u0q_cqS-102" value="F" style="text;html=1;align=center;verticalAlign=middle;resizable=0;points=[];autosize=1;strokeColor=none;fillColor=none;" parent="1" vertex="1">
          <mxGeometry x="-420.75" y="-10" width="30" height="30" as="geometry" />
        </mxCell>
        <mxCell id="AAZVMAnwfbZu5u0q_cqS-107" value="" style="edgeStyle=orthogonalEdgeStyle;rounded=0;orthogonalLoop=1;jettySize=auto;html=1;" parent="1" source="AAZVMAnwfbZu5u0q_cqS-105" target="AAZVMAnwfbZu5u0q_cqS-98" edge="1">
          <mxGeometry relative="1" as="geometry" />
        </mxCell>
        <mxCell id="AAZVMAnwfbZu5u0q_cqS-108" style="edgeStyle=orthogonalEdgeStyle;rounded=0;orthogonalLoop=1;jettySize=auto;html=1;entryX=0;entryY=0.5;entryDx=0;entryDy=0;" parent="1" source="AAZVMAnwfbZu5u0q_cqS-105" target="AAZVMAnwfbZu5u0q_cqS-109" edge="1">
          <mxGeometry relative="1" as="geometry">
            <mxPoint x="-690.5" y="30" as="targetPoint" />
            <Array as="points">
              <mxPoint x="-680" y="370" />
              <mxPoint x="-680" y="-75" />
            </Array>
          </mxGeometry>
        </mxCell>
        <mxCell id="AAZVMAnwfbZu5u0q_cqS-105" value="แปลงครบทุกตัวแล้วหรือไม่" style="rhombus;whiteSpace=wrap;html=1;" parent="1" vertex="1">
          <mxGeometry x="-542" y="330" width="128" height="80" as="geometry" />
        </mxCell>
        <mxCell id="AAZVMAnwfbZu5u0q_cqS-111" style="edgeStyle=orthogonalEdgeStyle;rounded=0;orthogonalLoop=1;jettySize=auto;html=1;entryX=0.5;entryY=0;entryDx=0;entryDy=0;" parent="1" source="AAZVMAnwfbZu5u0q_cqS-109" target="AAZVMAnwfbZu5u0q_cqS-86" edge="1">
          <mxGeometry relative="1" as="geometry" />
        </mxCell>
        <mxCell id="AAZVMAnwfbZu5u0q_cqS-109" value="" style="ellipse;whiteSpace=wrap;html=1;aspect=fixed;" parent="1" vertex="1">
          <mxGeometry x="-493.5" y="-90" width="30" height="30" as="geometry" />
        </mxCell>
        <mxCell id="AAZVMAnwfbZu5u0q_cqS-121" value="" style="edgeStyle=orthogonalEdgeStyle;rounded=0;orthogonalLoop=1;jettySize=auto;html=1;" parent="1" source="AAZVMAnwfbZu5u0q_cqS-116" target="AAZVMAnwfbZu5u0q_cqS-120" edge="1">
          <mxGeometry relative="1" as="geometry" />
        </mxCell>
        <mxCell id="AAZVMAnwfbZu5u0q_cqS-116" value="start convert" style="shape=process;whiteSpace=wrap;html=1;backgroundOutline=1;" parent="1" vertex="1">
          <mxGeometry x="320" y="-1080" width="120" height="65" as="geometry" />
        </mxCell>
        <mxCell id="0AfvxG6xlVX3FID8-RaT-135" value="" style="edgeStyle=orthogonalEdgeStyle;rounded=0;orthogonalLoop=1;jettySize=auto;html=1;" edge="1" parent="1" source="AAZVMAnwfbZu5u0q_cqS-117" target="0AfvxG6xlVX3FID8-RaT-134">
          <mxGeometry relative="1" as="geometry" />
        </mxCell>
        <mxCell id="AAZVMAnwfbZu5u0q_cqS-117" value="convert" style="shape=process;whiteSpace=wrap;html=1;backgroundOutline=1;" parent="1" vertex="1">
          <mxGeometry x="-538" y="510" width="120" height="65" as="geometry" />
        </mxCell>
        <mxCell id="0AfvxG6xlVX3FID8-RaT-3" value="" style="edgeStyle=orthogonalEdgeStyle;rounded=0;orthogonalLoop=1;jettySize=auto;html=1;" edge="1" parent="1" source="AAZVMAnwfbZu5u0q_cqS-118" target="0AfvxG6xlVX3FID8-RaT-2">
          <mxGeometry relative="1" as="geometry" />
        </mxCell>
        <mxCell id="AAZVMAnwfbZu5u0q_cqS-118" value="แปลง Birthdayint เป็น พศ&lt;div&gt;(543)&lt;/div&gt;" style="rounded=0;whiteSpace=wrap;html=1;" parent="1" vertex="1">
          <mxGeometry x="300" y="-895" width="160" height="40" as="geometry" />
        </mxCell>
        <mxCell id="0AfvxG6xlVX3FID8-RaT-1" value="" style="edgeStyle=orthogonalEdgeStyle;rounded=0;orthogonalLoop=1;jettySize=auto;html=1;" edge="1" parent="1" source="AAZVMAnwfbZu5u0q_cqS-120" target="AAZVMAnwfbZu5u0q_cqS-118">
          <mxGeometry relative="1" as="geometry" />
        </mxCell>
        <mxCell id="AAZVMAnwfbZu5u0q_cqS-120" value="กำหนดตัวแปร arr&amp;nbsp;current&lt;div&gt;2561 , 6 , 21&lt;/div&gt;" style="rounded=0;whiteSpace=wrap;html=1;" parent="1" vertex="1">
          <mxGeometry x="292.5" y="-980" width="175" height="45" as="geometry" />
        </mxCell>
        <mxCell id="0AfvxG6xlVX3FID8-RaT-7" value="" style="edgeStyle=orthogonalEdgeStyle;rounded=0;orthogonalLoop=1;jettySize=auto;html=1;" edge="1" parent="1" source="0AfvxG6xlVX3FID8-RaT-2" target="0AfvxG6xlVX3FID8-RaT-6">
          <mxGeometry relative="1" as="geometry" />
        </mxCell>
        <mxCell id="0AfvxG6xlVX3FID8-RaT-2" value="2561 - ปีที่แปลง" style="rounded=0;whiteSpace=wrap;html=1;" vertex="1" parent="1">
          <mxGeometry x="300" y="-825" width="160" height="40" as="geometry" />
        </mxCell>
        <mxCell id="0AfvxG6xlVX3FID8-RaT-9" value="" style="edgeStyle=orthogonalEdgeStyle;rounded=0;orthogonalLoop=1;jettySize=auto;html=1;" edge="1" parent="1" source="0AfvxG6xlVX3FID8-RaT-6" target="0AfvxG6xlVX3FID8-RaT-8">
          <mxGeometry relative="1" as="geometry" />
        </mxCell>
        <mxCell id="0AfvxG6xlVX3FID8-RaT-6" value="6 - เดือนที่แปลง" style="rounded=0;whiteSpace=wrap;html=1;" vertex="1" parent="1">
          <mxGeometry x="300" y="-755" width="160" height="40" as="geometry" />
        </mxCell>
        <mxCell id="0AfvxG6xlVX3FID8-RaT-11" value="" style="edgeStyle=orthogonalEdgeStyle;rounded=0;orthogonalLoop=1;jettySize=auto;html=1;" edge="1" parent="1" source="0AfvxG6xlVX3FID8-RaT-8" target="0AfvxG6xlVX3FID8-RaT-10">
          <mxGeometry relative="1" as="geometry" />
        </mxCell>
        <mxCell id="0AfvxG6xlVX3FID8-RaT-52" value="" style="edgeStyle=orthogonalEdgeStyle;rounded=0;orthogonalLoop=1;jettySize=auto;html=1;" edge="1" parent="1" source="0AfvxG6xlVX3FID8-RaT-8" target="0AfvxG6xlVX3FID8-RaT-50">
          <mxGeometry relative="1" as="geometry" />
        </mxCell>
        <mxCell id="0AfvxG6xlVX3FID8-RaT-8" value="เดือนเกิดมากกว่าหรือเท่ากับเดือนปัจจุบันหรือไม่" style="rhombus;whiteSpace=wrap;html=1;" vertex="1" parent="1">
          <mxGeometry x="292.5" y="-697.5" width="174" height="105" as="geometry" />
        </mxCell>
        <mxCell id="0AfvxG6xlVX3FID8-RaT-27" value="" style="edgeStyle=orthogonalEdgeStyle;rounded=0;orthogonalLoop=1;jettySize=auto;html=1;" edge="1" parent="1" source="0AfvxG6xlVX3FID8-RaT-10" target="0AfvxG6xlVX3FID8-RaT-26">
          <mxGeometry relative="1" as="geometry" />
        </mxCell>
        <mxCell id="0AfvxG6xlVX3FID8-RaT-10" value="หักเดือนปัจจุบันออกจากเดือนเกิด" style="rounded=0;whiteSpace=wrap;html=1;" vertex="1" parent="1">
          <mxGeometry x="510" y="-665" width="160" height="40" as="geometry" />
        </mxCell>
        <mxCell id="0AfvxG6xlVX3FID8-RaT-31" style="edgeStyle=orthogonalEdgeStyle;rounded=0;orthogonalLoop=1;jettySize=auto;html=1;entryX=1;entryY=0.5;entryDx=0;entryDy=0;" edge="1" parent="1" source="0AfvxG6xlVX3FID8-RaT-12" target="0AfvxG6xlVX3FID8-RaT-30">
          <mxGeometry relative="1" as="geometry">
            <Array as="points">
              <mxPoint x="590" y="-340" />
            </Array>
          </mxGeometry>
        </mxCell>
        <mxCell id="0AfvxG6xlVX3FID8-RaT-12" value="เพิ่ม 12 เดือนและลดปีลง 1" style="rounded=0;whiteSpace=wrap;html=1;" vertex="1" parent="1">
          <mxGeometry x="510" y="-445" width="160" height="40" as="geometry" />
        </mxCell>
        <mxCell id="0AfvxG6xlVX3FID8-RaT-29" value="" style="edgeStyle=orthogonalEdgeStyle;rounded=0;orthogonalLoop=1;jettySize=auto;html=1;" edge="1" parent="1" source="0AfvxG6xlVX3FID8-RaT-26" target="0AfvxG6xlVX3FID8-RaT-12">
          <mxGeometry relative="1" as="geometry" />
        </mxCell>
        <mxCell id="0AfvxG6xlVX3FID8-RaT-51" style="edgeStyle=orthogonalEdgeStyle;rounded=0;orthogonalLoop=1;jettySize=auto;html=1;entryX=1;entryY=0.5;entryDx=0;entryDy=0;" edge="1" parent="1" source="0AfvxG6xlVX3FID8-RaT-26" target="0AfvxG6xlVX3FID8-RaT-50">
          <mxGeometry relative="1" as="geometry" />
        </mxCell>
        <mxCell id="0AfvxG6xlVX3FID8-RaT-26" value="ติดลบหรือไม่" style="rhombus;whiteSpace=wrap;html=1;" vertex="1" parent="1">
          <mxGeometry x="503" y="-580" width="174" height="105" as="geometry" />
        </mxCell>
        <mxCell id="0AfvxG6xlVX3FID8-RaT-30" value="" style="ellipse;whiteSpace=wrap;html=1;aspect=fixed;" vertex="1" parent="1">
          <mxGeometry x="365" y="-355" width="30" height="30" as="geometry" />
        </mxCell>
        <mxCell id="0AfvxG6xlVX3FID8-RaT-32" value="" style="edgeStyle=orthogonalEdgeStyle;rounded=0;orthogonalLoop=1;jettySize=auto;html=1;" edge="1" source="0AfvxG6xlVX3FID8-RaT-34" target="0AfvxG6xlVX3FID8-RaT-36" parent="1">
          <mxGeometry relative="1" as="geometry" />
        </mxCell>
        <mxCell id="0AfvxG6xlVX3FID8-RaT-60" value="" style="edgeStyle=orthogonalEdgeStyle;rounded=0;orthogonalLoop=1;jettySize=auto;html=1;" edge="1" parent="1" source="0AfvxG6xlVX3FID8-RaT-34" target="0AfvxG6xlVX3FID8-RaT-58">
          <mxGeometry relative="1" as="geometry" />
        </mxCell>
        <mxCell id="0AfvxG6xlVX3FID8-RaT-34" value="วันเกิดมากกว่าหรือเท่ากับวันปัจจุบันหรือไม่" style="rhombus;whiteSpace=wrap;html=1;" vertex="1" parent="1">
          <mxGeometry x="292.5" y="-307.5" width="174" height="105" as="geometry" />
        </mxCell>
        <mxCell id="0AfvxG6xlVX3FID8-RaT-35" value="" style="edgeStyle=orthogonalEdgeStyle;rounded=0;orthogonalLoop=1;jettySize=auto;html=1;" edge="1" source="0AfvxG6xlVX3FID8-RaT-36" target="0AfvxG6xlVX3FID8-RaT-40" parent="1">
          <mxGeometry relative="1" as="geometry" />
        </mxCell>
        <mxCell id="0AfvxG6xlVX3FID8-RaT-36" value="หักวันปัจจุบันออกจากวันเกิด" style="rounded=0;whiteSpace=wrap;html=1;" vertex="1" parent="1">
          <mxGeometry x="510" y="-275" width="160" height="40" as="geometry" />
        </mxCell>
        <mxCell id="0AfvxG6xlVX3FID8-RaT-49" value="" style="edgeStyle=orthogonalEdgeStyle;rounded=0;orthogonalLoop=1;jettySize=auto;html=1;" edge="1" parent="1" source="0AfvxG6xlVX3FID8-RaT-38" target="0AfvxG6xlVX3FID8-RaT-48">
          <mxGeometry relative="1" as="geometry" />
        </mxCell>
        <mxCell id="0AfvxG6xlVX3FID8-RaT-38" value="ให้เพิ่ม 30 วันและลดเดือนลง 1" style="rounded=0;whiteSpace=wrap;html=1;" vertex="1" parent="1">
          <mxGeometry x="510" y="-55" width="160" height="40" as="geometry" />
        </mxCell>
        <mxCell id="0AfvxG6xlVX3FID8-RaT-39" value="" style="edgeStyle=orthogonalEdgeStyle;rounded=0;orthogonalLoop=1;jettySize=auto;html=1;" edge="1" source="0AfvxG6xlVX3FID8-RaT-40" target="0AfvxG6xlVX3FID8-RaT-38" parent="1">
          <mxGeometry relative="1" as="geometry" />
        </mxCell>
        <mxCell id="0AfvxG6xlVX3FID8-RaT-59" value="" style="edgeStyle=orthogonalEdgeStyle;rounded=0;orthogonalLoop=1;jettySize=auto;html=1;" edge="1" parent="1" source="0AfvxG6xlVX3FID8-RaT-40" target="0AfvxG6xlVX3FID8-RaT-58">
          <mxGeometry relative="1" as="geometry" />
        </mxCell>
        <mxCell id="0AfvxG6xlVX3FID8-RaT-40" value="ติดลบหรือไม่" style="rhombus;whiteSpace=wrap;html=1;" vertex="1" parent="1">
          <mxGeometry x="503" y="-190" width="174" height="105" as="geometry" />
        </mxCell>
        <mxCell id="0AfvxG6xlVX3FID8-RaT-71" style="edgeStyle=orthogonalEdgeStyle;rounded=0;orthogonalLoop=1;jettySize=auto;html=1;entryX=0.5;entryY=0;entryDx=0;entryDy=0;" edge="1" parent="1" source="0AfvxG6xlVX3FID8-RaT-41" target="0AfvxG6xlVX3FID8-RaT-69">
          <mxGeometry relative="1" as="geometry" />
        </mxCell>
        <mxCell id="0AfvxG6xlVX3FID8-RaT-41" value="" style="ellipse;whiteSpace=wrap;html=1;aspect=fixed;" vertex="1" parent="1">
          <mxGeometry x="365" y="57.5" width="30" height="30" as="geometry" />
        </mxCell>
        <mxCell id="0AfvxG6xlVX3FID8-RaT-42" value="" style="edgeStyle=orthogonalEdgeStyle;rounded=0;orthogonalLoop=1;jettySize=auto;html=1;" edge="1" target="0AfvxG6xlVX3FID8-RaT-34" parent="1">
          <mxGeometry relative="1" as="geometry">
            <mxPoint x="380" y="-325" as="sourcePoint" />
            <Array as="points">
              <mxPoint x="380" y="-310" />
              <mxPoint x="380" y="-310" />
            </Array>
          </mxGeometry>
        </mxCell>
        <mxCell id="0AfvxG6xlVX3FID8-RaT-43" value="F" style="text;html=1;align=center;verticalAlign=middle;resizable=0;points=[];autosize=1;strokeColor=none;fillColor=none;" vertex="1" parent="1">
          <mxGeometry x="380" y="-602.5" width="30" height="30" as="geometry" />
        </mxCell>
        <mxCell id="0AfvxG6xlVX3FID8-RaT-44" value="T" style="text;html=1;align=center;verticalAlign=middle;resizable=0;points=[];autosize=1;strokeColor=none;fillColor=none;" vertex="1" parent="1">
          <mxGeometry x="466.5" y="-675" width="30" height="30" as="geometry" />
        </mxCell>
        <mxCell id="0AfvxG6xlVX3FID8-RaT-45" value="F" style="text;html=1;align=center;verticalAlign=middle;resizable=0;points=[];autosize=1;strokeColor=none;fillColor=none;" vertex="1" parent="1">
          <mxGeometry x="380" y="-208.75" width="30" height="30" as="geometry" />
        </mxCell>
        <mxCell id="0AfvxG6xlVX3FID8-RaT-46" value="T" style="text;html=1;align=center;verticalAlign=middle;resizable=0;points=[];autosize=1;strokeColor=none;fillColor=none;" vertex="1" parent="1">
          <mxGeometry x="466.5" y="-281.25" width="30" height="30" as="geometry" />
        </mxCell>
        <mxCell id="0AfvxG6xlVX3FID8-RaT-64" value="" style="edgeStyle=orthogonalEdgeStyle;rounded=0;orthogonalLoop=1;jettySize=auto;html=1;" edge="1" parent="1" source="0AfvxG6xlVX3FID8-RaT-48" target="0AfvxG6xlVX3FID8-RaT-63">
          <mxGeometry relative="1" as="geometry" />
        </mxCell>
        <mxCell id="0AfvxG6xlVX3FID8-RaT-65" value="" style="edgeStyle=orthogonalEdgeStyle;rounded=0;orthogonalLoop=1;jettySize=auto;html=1;" edge="1" parent="1" source="0AfvxG6xlVX3FID8-RaT-48" target="0AfvxG6xlVX3FID8-RaT-41">
          <mxGeometry relative="1" as="geometry" />
        </mxCell>
        <mxCell id="0AfvxG6xlVX3FID8-RaT-48" value="เดือนติดลบหรือไม่" style="rhombus;whiteSpace=wrap;html=1;" vertex="1" parent="1">
          <mxGeometry x="503" y="20" width="174" height="105" as="geometry" />
        </mxCell>
        <mxCell id="0AfvxG6xlVX3FID8-RaT-53" style="edgeStyle=orthogonalEdgeStyle;rounded=0;orthogonalLoop=1;jettySize=auto;html=1;" edge="1" parent="1" source="0AfvxG6xlVX3FID8-RaT-50">
          <mxGeometry relative="1" as="geometry">
            <mxPoint x="379.5000000000002" y="-360" as="targetPoint" />
          </mxGeometry>
        </mxCell>
        <mxCell id="0AfvxG6xlVX3FID8-RaT-50" value="" style="ellipse;whiteSpace=wrap;html=1;aspect=fixed;" vertex="1" parent="1">
          <mxGeometry x="364.5" y="-542.5" width="30" height="30" as="geometry" />
        </mxCell>
        <mxCell id="0AfvxG6xlVX3FID8-RaT-54" value="F" style="text;html=1;align=center;verticalAlign=middle;resizable=0;points=[];autosize=1;strokeColor=none;fillColor=none;" vertex="1" parent="1">
          <mxGeometry x="473" y="-555" width="30" height="30" as="geometry" />
        </mxCell>
        <mxCell id="0AfvxG6xlVX3FID8-RaT-55" value="T" style="text;html=1;align=center;verticalAlign=middle;resizable=0;points=[];autosize=1;strokeColor=none;fillColor=none;" vertex="1" parent="1">
          <mxGeometry x="600" y="-480" width="30" height="30" as="geometry" />
        </mxCell>
        <mxCell id="0AfvxG6xlVX3FID8-RaT-57" value="T" style="text;html=1;align=center;verticalAlign=middle;resizable=0;points=[];autosize=1;strokeColor=none;fillColor=none;" vertex="1" parent="1">
          <mxGeometry x="600" y="-90" width="30" height="30" as="geometry" />
        </mxCell>
        <mxCell id="0AfvxG6xlVX3FID8-RaT-66" style="edgeStyle=orthogonalEdgeStyle;rounded=0;orthogonalLoop=1;jettySize=auto;html=1;entryX=0.5;entryY=0;entryDx=0;entryDy=0;" edge="1" parent="1" source="0AfvxG6xlVX3FID8-RaT-58" target="0AfvxG6xlVX3FID8-RaT-41">
          <mxGeometry relative="1" as="geometry" />
        </mxCell>
        <mxCell id="0AfvxG6xlVX3FID8-RaT-58" value="" style="ellipse;whiteSpace=wrap;html=1;aspect=fixed;" vertex="1" parent="1">
          <mxGeometry x="365" y="-152.5" width="30" height="30" as="geometry" />
        </mxCell>
        <mxCell id="0AfvxG6xlVX3FID8-RaT-61" value="F" style="text;html=1;align=center;verticalAlign=middle;resizable=0;points=[];autosize=1;strokeColor=none;fillColor=none;" vertex="1" parent="1">
          <mxGeometry x="473" y="-170" width="30" height="30" as="geometry" />
        </mxCell>
        <mxCell id="0AfvxG6xlVX3FID8-RaT-70" style="edgeStyle=orthogonalEdgeStyle;rounded=0;orthogonalLoop=1;jettySize=auto;html=1;entryX=1;entryY=0.5;entryDx=0;entryDy=0;" edge="1" parent="1" source="0AfvxG6xlVX3FID8-RaT-63" target="0AfvxG6xlVX3FID8-RaT-69">
          <mxGeometry relative="1" as="geometry">
            <Array as="points">
              <mxPoint x="590" y="255" />
            </Array>
          </mxGeometry>
        </mxCell>
        <mxCell id="0AfvxG6xlVX3FID8-RaT-63" value="ให้เพิ่ม 12 เดือนและลดปีลง 1" style="rounded=0;whiteSpace=wrap;html=1;" vertex="1" parent="1">
          <mxGeometry x="510" y="160" width="160" height="40" as="geometry" />
        </mxCell>
        <mxCell id="0AfvxG6xlVX3FID8-RaT-67" value="T" style="text;html=1;align=center;verticalAlign=middle;resizable=0;points=[];autosize=1;strokeColor=none;fillColor=none;" vertex="1" parent="1">
          <mxGeometry x="600" y="120" width="30" height="30" as="geometry" />
        </mxCell>
        <mxCell id="0AfvxG6xlVX3FID8-RaT-68" value="F" style="text;html=1;align=center;verticalAlign=middle;resizable=0;points=[];autosize=1;strokeColor=none;fillColor=none;" vertex="1" parent="1">
          <mxGeometry x="473" y="40" width="30" height="30" as="geometry" />
        </mxCell>
        <mxCell id="0AfvxG6xlVX3FID8-RaT-73" value="" style="edgeStyle=orthogonalEdgeStyle;rounded=0;orthogonalLoop=1;jettySize=auto;html=1;" edge="1" parent="1" source="0AfvxG6xlVX3FID8-RaT-69" target="0AfvxG6xlVX3FID8-RaT-72">
          <mxGeometry relative="1" as="geometry" />
        </mxCell>
        <mxCell id="0AfvxG6xlVX3FID8-RaT-69" value="" style="ellipse;whiteSpace=wrap;html=1;aspect=fixed;" vertex="1" parent="1">
          <mxGeometry x="364.5" y="240" width="30" height="30" as="geometry" />
        </mxCell>
        <mxCell id="0AfvxG6xlVX3FID8-RaT-75" value="" style="edgeStyle=orthogonalEdgeStyle;rounded=0;orthogonalLoop=1;jettySize=auto;html=1;" edge="1" parent="1" source="0AfvxG6xlVX3FID8-RaT-72" target="0AfvxG6xlVX3FID8-RaT-74">
          <mxGeometry relative="1" as="geometry" />
        </mxCell>
        <mxCell id="0AfvxG6xlVX3FID8-RaT-72" value="เก็บค่าไว้ใน Output" style="rounded=0;whiteSpace=wrap;html=1;" vertex="1" parent="1">
          <mxGeometry x="299.5" y="310" width="160" height="40" as="geometry" />
        </mxCell>
        <mxCell id="0AfvxG6xlVX3FID8-RaT-74" value="End convert" style="shape=process;whiteSpace=wrap;html=1;backgroundOutline=1;" vertex="1" parent="1">
          <mxGeometry x="320" y="410" width="120" height="65" as="geometry" />
        </mxCell>
        <mxCell id="0AfvxG6xlVX3FID8-RaT-88" value="" style="edgeStyle=orthogonalEdgeStyle;rounded=0;orthogonalLoop=1;jettySize=auto;html=1;" edge="1" parent="1" source="0AfvxG6xlVX3FID8-RaT-79" target="0AfvxG6xlVX3FID8-RaT-87">
          <mxGeometry relative="1" as="geometry" />
        </mxCell>
        <mxCell id="0AfvxG6xlVX3FID8-RaT-79" value="start MaxMin" style="shape=process;whiteSpace=wrap;html=1;backgroundOutline=1;" vertex="1" parent="1">
          <mxGeometry x="907.5" y="-1090" width="120" height="65" as="geometry" />
        </mxCell>
        <mxCell id="0AfvxG6xlVX3FID8-RaT-86" value="" style="edgeStyle=orthogonalEdgeStyle;rounded=0;orthogonalLoop=1;jettySize=auto;html=1;" edge="1" parent="1" source="0AfvxG6xlVX3FID8-RaT-82" target="0AfvxG6xlVX3FID8-RaT-83">
          <mxGeometry relative="1" as="geometry" />
        </mxCell>
        <mxCell id="0AfvxG6xlVX3FID8-RaT-99" value="" style="edgeStyle=orthogonalEdgeStyle;rounded=0;orthogonalLoop=1;jettySize=auto;html=1;" edge="1" parent="1" source="0AfvxG6xlVX3FID8-RaT-82" target="0AfvxG6xlVX3FID8-RaT-98">
          <mxGeometry relative="1" as="geometry" />
        </mxCell>
        <mxCell id="0AfvxG6xlVX3FID8-RaT-82" value="อายุมากที่สุดหรือไม่" style="rhombus;whiteSpace=wrap;html=1;" vertex="1" parent="1">
          <mxGeometry x="880" y="-602.5" width="174" height="105" as="geometry" />
        </mxCell>
        <mxCell id="0AfvxG6xlVX3FID8-RaT-97" value="" style="edgeStyle=orthogonalEdgeStyle;rounded=0;orthogonalLoop=1;jettySize=auto;html=1;" edge="1" parent="1" source="0AfvxG6xlVX3FID8-RaT-83" target="0AfvxG6xlVX3FID8-RaT-84">
          <mxGeometry relative="1" as="geometry" />
        </mxCell>
        <mxCell id="0AfvxG6xlVX3FID8-RaT-83" value="เก็บชื่อไว้ใน Maxchardisplay&amp;nbsp;" style="rounded=0;whiteSpace=wrap;html=1;" vertex="1" parent="1">
          <mxGeometry x="1087" y="-572.5" width="175" height="45" as="geometry" />
        </mxCell>
        <mxCell id="0AfvxG6xlVX3FID8-RaT-100" style="edgeStyle=orthogonalEdgeStyle;rounded=0;orthogonalLoop=1;jettySize=auto;html=1;entryX=1;entryY=0.5;entryDx=0;entryDy=0;" edge="1" parent="1" source="0AfvxG6xlVX3FID8-RaT-84" target="0AfvxG6xlVX3FID8-RaT-98">
          <mxGeometry relative="1" as="geometry">
            <Array as="points">
              <mxPoint x="1175" y="-395" />
            </Array>
          </mxGeometry>
        </mxCell>
        <mxCell id="0AfvxG6xlVX3FID8-RaT-84" value="เก็บอายุไว่ใน MaxDisplay" style="rounded=0;whiteSpace=wrap;html=1;" vertex="1" parent="1">
          <mxGeometry x="1094.5" y="-482.5" width="160" height="40" as="geometry" />
        </mxCell>
        <mxCell id="0AfvxG6xlVX3FID8-RaT-85" value="T" style="text;html=1;align=center;verticalAlign=middle;resizable=0;points=[];autosize=1;strokeColor=none;fillColor=none;" vertex="1" parent="1">
          <mxGeometry x="1054" y="-585" width="30" height="30" as="geometry" />
        </mxCell>
        <mxCell id="0AfvxG6xlVX3FID8-RaT-93" value="" style="edgeStyle=orthogonalEdgeStyle;rounded=0;orthogonalLoop=1;jettySize=auto;html=1;" edge="1" parent="1" source="0AfvxG6xlVX3FID8-RaT-87" target="0AfvxG6xlVX3FID8-RaT-89">
          <mxGeometry relative="1" as="geometry" />
        </mxCell>
        <mxCell id="0AfvxG6xlVX3FID8-RaT-87" value="MaxDisplay" style="rounded=0;whiteSpace=wrap;html=1;" vertex="1" parent="1">
          <mxGeometry x="880" y="-990" width="175" height="45" as="geometry" />
        </mxCell>
        <mxCell id="0AfvxG6xlVX3FID8-RaT-94" value="" style="edgeStyle=orthogonalEdgeStyle;rounded=0;orthogonalLoop=1;jettySize=auto;html=1;" edge="1" parent="1" source="0AfvxG6xlVX3FID8-RaT-89" target="0AfvxG6xlVX3FID8-RaT-90">
          <mxGeometry relative="1" as="geometry" />
        </mxCell>
        <mxCell id="0AfvxG6xlVX3FID8-RaT-89" value="MinDisplay" style="rounded=0;whiteSpace=wrap;html=1;" vertex="1" parent="1">
          <mxGeometry x="880" y="-890" width="175" height="45" as="geometry" />
        </mxCell>
        <mxCell id="0AfvxG6xlVX3FID8-RaT-95" value="" style="edgeStyle=orthogonalEdgeStyle;rounded=0;orthogonalLoop=1;jettySize=auto;html=1;" edge="1" parent="1" source="0AfvxG6xlVX3FID8-RaT-90" target="0AfvxG6xlVX3FID8-RaT-91">
          <mxGeometry relative="1" as="geometry" />
        </mxCell>
        <mxCell id="0AfvxG6xlVX3FID8-RaT-90" value="Maxchardisplay" style="rounded=0;whiteSpace=wrap;html=1;" vertex="1" parent="1">
          <mxGeometry x="880" y="-790" width="175" height="45" as="geometry" />
        </mxCell>
        <mxCell id="0AfvxG6xlVX3FID8-RaT-96" value="" style="edgeStyle=orthogonalEdgeStyle;rounded=0;orthogonalLoop=1;jettySize=auto;html=1;" edge="1" parent="1" source="0AfvxG6xlVX3FID8-RaT-91" target="0AfvxG6xlVX3FID8-RaT-82">
          <mxGeometry relative="1" as="geometry" />
        </mxCell>
        <mxCell id="0AfvxG6xlVX3FID8-RaT-91" value="Minchardisplay" style="rounded=0;whiteSpace=wrap;html=1;" vertex="1" parent="1">
          <mxGeometry x="880" y="-692.5" width="175" height="45" as="geometry" />
        </mxCell>
        <mxCell id="0AfvxG6xlVX3FID8-RaT-113" value="" style="edgeStyle=orthogonalEdgeStyle;rounded=0;orthogonalLoop=1;jettySize=auto;html=1;" edge="1" parent="1" source="0AfvxG6xlVX3FID8-RaT-98" target="0AfvxG6xlVX3FID8-RaT-104">
          <mxGeometry relative="1" as="geometry" />
        </mxCell>
        <mxCell id="0AfvxG6xlVX3FID8-RaT-98" value="" style="ellipse;whiteSpace=wrap;html=1;aspect=fixed;" vertex="1" parent="1">
          <mxGeometry x="952.5" y="-410" width="30" height="30" as="geometry" />
        </mxCell>
        <mxCell id="0AfvxG6xlVX3FID8-RaT-101" value="F" style="text;html=1;align=center;verticalAlign=middle;resizable=0;points=[];autosize=1;strokeColor=none;fillColor=none;" vertex="1" parent="1">
          <mxGeometry x="970" y="-497.5" width="30" height="30" as="geometry" />
        </mxCell>
        <mxCell id="0AfvxG6xlVX3FID8-RaT-102" value="" style="edgeStyle=orthogonalEdgeStyle;rounded=0;orthogonalLoop=1;jettySize=auto;html=1;" edge="1" source="0AfvxG6xlVX3FID8-RaT-104" target="0AfvxG6xlVX3FID8-RaT-106" parent="1">
          <mxGeometry relative="1" as="geometry" />
        </mxCell>
        <mxCell id="0AfvxG6xlVX3FID8-RaT-103" value="" style="edgeStyle=orthogonalEdgeStyle;rounded=0;orthogonalLoop=1;jettySize=auto;html=1;" edge="1" source="0AfvxG6xlVX3FID8-RaT-104" target="0AfvxG6xlVX3FID8-RaT-110" parent="1">
          <mxGeometry relative="1" as="geometry" />
        </mxCell>
        <mxCell id="0AfvxG6xlVX3FID8-RaT-104" value="อายุน้อยที่สุดหรือไม่" style="rhombus;whiteSpace=wrap;html=1;" vertex="1" parent="1">
          <mxGeometry x="880" y="-335" width="174" height="105" as="geometry" />
        </mxCell>
        <mxCell id="0AfvxG6xlVX3FID8-RaT-105" value="" style="edgeStyle=orthogonalEdgeStyle;rounded=0;orthogonalLoop=1;jettySize=auto;html=1;" edge="1" source="0AfvxG6xlVX3FID8-RaT-106" target="0AfvxG6xlVX3FID8-RaT-108" parent="1">
          <mxGeometry relative="1" as="geometry" />
        </mxCell>
        <mxCell id="0AfvxG6xlVX3FID8-RaT-106" value="เก็บชื่อไว้ใน Minchardisplay&amp;nbsp;" style="rounded=0;whiteSpace=wrap;html=1;" vertex="1" parent="1">
          <mxGeometry x="1087" y="-305" width="175" height="45" as="geometry" />
        </mxCell>
        <mxCell id="0AfvxG6xlVX3FID8-RaT-107" style="edgeStyle=orthogonalEdgeStyle;rounded=0;orthogonalLoop=1;jettySize=auto;html=1;entryX=1;entryY=0.5;entryDx=0;entryDy=0;" edge="1" source="0AfvxG6xlVX3FID8-RaT-108" target="0AfvxG6xlVX3FID8-RaT-110" parent="1">
          <mxGeometry relative="1" as="geometry">
            <Array as="points">
              <mxPoint x="1175" y="-127.5" />
            </Array>
          </mxGeometry>
        </mxCell>
        <mxCell id="0AfvxG6xlVX3FID8-RaT-108" value="เก็บอายุไว่ใน MinDisplay" style="rounded=0;whiteSpace=wrap;html=1;" vertex="1" parent="1">
          <mxGeometry x="1094.5" y="-215" width="160" height="40" as="geometry" />
        </mxCell>
        <mxCell id="0AfvxG6xlVX3FID8-RaT-109" value="T" style="text;html=1;align=center;verticalAlign=middle;resizable=0;points=[];autosize=1;strokeColor=none;fillColor=none;" vertex="1" parent="1">
          <mxGeometry x="1054" y="-315" width="30" height="30" as="geometry" />
        </mxCell>
        <mxCell id="0AfvxG6xlVX3FID8-RaT-121" value="" style="edgeStyle=orthogonalEdgeStyle;rounded=0;orthogonalLoop=1;jettySize=auto;html=1;" edge="1" parent="1" source="0AfvxG6xlVX3FID8-RaT-110" target="0AfvxG6xlVX3FID8-RaT-117">
          <mxGeometry relative="1" as="geometry" />
        </mxCell>
        <mxCell id="0AfvxG6xlVX3FID8-RaT-110" value="" style="ellipse;whiteSpace=wrap;html=1;aspect=fixed;" vertex="1" parent="1">
          <mxGeometry x="952.5" y="-142.5" width="30" height="30" as="geometry" />
        </mxCell>
        <mxCell id="0AfvxG6xlVX3FID8-RaT-111" value="F" style="text;html=1;align=center;verticalAlign=middle;resizable=0;points=[];autosize=1;strokeColor=none;fillColor=none;" vertex="1" parent="1">
          <mxGeometry x="982.5" y="-238.75" width="30" height="30" as="geometry" />
        </mxCell>
        <mxCell id="0AfvxG6xlVX3FID8-RaT-122" value="" style="edgeStyle=orthogonalEdgeStyle;rounded=0;orthogonalLoop=1;jettySize=auto;html=1;" edge="1" parent="1" source="0AfvxG6xlVX3FID8-RaT-117" target="0AfvxG6xlVX3FID8-RaT-118">
          <mxGeometry relative="1" as="geometry" />
        </mxCell>
        <mxCell id="0AfvxG6xlVX3FID8-RaT-117" value="ปริ้น Maxchardisplay&amp;nbsp;" style="rounded=0;whiteSpace=wrap;html=1;" vertex="1" parent="1">
          <mxGeometry x="880" y="-67.5" width="175" height="45" as="geometry" />
        </mxCell>
        <mxCell id="0AfvxG6xlVX3FID8-RaT-123" value="" style="edgeStyle=orthogonalEdgeStyle;rounded=0;orthogonalLoop=1;jettySize=auto;html=1;" edge="1" parent="1" source="0AfvxG6xlVX3FID8-RaT-118" target="0AfvxG6xlVX3FID8-RaT-119">
          <mxGeometry relative="1" as="geometry" />
        </mxCell>
        <mxCell id="0AfvxG6xlVX3FID8-RaT-118" value="ปริ้น&amp;nbsp;MaxDisplay" style="rounded=0;whiteSpace=wrap;html=1;" vertex="1" parent="1">
          <mxGeometry x="887.5" y="22.5" width="160" height="40" as="geometry" />
        </mxCell>
        <mxCell id="0AfvxG6xlVX3FID8-RaT-124" value="" style="edgeStyle=orthogonalEdgeStyle;rounded=0;orthogonalLoop=1;jettySize=auto;html=1;" edge="1" parent="1" source="0AfvxG6xlVX3FID8-RaT-119" target="0AfvxG6xlVX3FID8-RaT-120">
          <mxGeometry relative="1" as="geometry" />
        </mxCell>
        <mxCell id="0AfvxG6xlVX3FID8-RaT-119" value="ปริ้น&amp;nbsp;Minchardisplay&amp;nbsp;" style="rounded=0;whiteSpace=wrap;html=1;" vertex="1" parent="1">
          <mxGeometry x="880" y="100" width="175" height="45" as="geometry" />
        </mxCell>
        <mxCell id="0AfvxG6xlVX3FID8-RaT-133" value="" style="edgeStyle=orthogonalEdgeStyle;rounded=0;orthogonalLoop=1;jettySize=auto;html=1;" edge="1" parent="1" source="0AfvxG6xlVX3FID8-RaT-120" target="0AfvxG6xlVX3FID8-RaT-132">
          <mxGeometry relative="1" as="geometry" />
        </mxCell>
        <mxCell id="0AfvxG6xlVX3FID8-RaT-120" value="ปริ้น&amp;nbsp;MinDisplay" style="rounded=0;whiteSpace=wrap;html=1;" vertex="1" parent="1">
          <mxGeometry x="887.5" y="190" width="160" height="40" as="geometry" />
        </mxCell>
        <mxCell id="0AfvxG6xlVX3FID8-RaT-132" value="End MaxMin" style="shape=process;whiteSpace=wrap;html=1;backgroundOutline=1;" vertex="1" parent="1">
          <mxGeometry x="907.5" y="270" width="120" height="65" as="geometry" />
        </mxCell>
        <mxCell id="0AfvxG6xlVX3FID8-RaT-137" style="edgeStyle=orthogonalEdgeStyle;rounded=0;orthogonalLoop=1;jettySize=auto;html=1;entryX=0.5;entryY=0;entryDx=0;entryDy=0;" edge="1" parent="1" source="0AfvxG6xlVX3FID8-RaT-134" target="AAZVMAnwfbZu5u0q_cqS-26">
          <mxGeometry relative="1" as="geometry" />
        </mxCell>
        <mxCell id="0AfvxG6xlVX3FID8-RaT-134" value="ปริ้นค่าที่แปลงแล้ว" style="rounded=0;whiteSpace=wrap;html=1;" vertex="1" parent="1">
          <mxGeometry x="-558" y="600" width="160.75" height="40" as="geometry" />
        </mxCell>
        <mxCell id="0AfvxG6xlVX3FID8-RaT-142" value="" style="edgeStyle=orthogonalEdgeStyle;rounded=0;orthogonalLoop=1;jettySize=auto;html=1;" edge="1" parent="1" source="0AfvxG6xlVX3FID8-RaT-139" target="0AfvxG6xlVX3FID8-RaT-141">
          <mxGeometry relative="1" as="geometry" />
        </mxCell>
        <mxCell id="0AfvxG6xlVX3FID8-RaT-139" value="Maxmin" style="shape=process;whiteSpace=wrap;html=1;backgroundOutline=1;" vertex="1" parent="1">
          <mxGeometry x="-538.5" y="790" width="120" height="65" as="geometry" />
        </mxCell>
        <mxCell id="0AfvxG6xlVX3FID8-RaT-147" value="" style="edgeStyle=orthogonalEdgeStyle;rounded=0;orthogonalLoop=1;jettySize=auto;html=1;" edge="1" parent="1" source="0AfvxG6xlVX3FID8-RaT-141" target="0AfvxG6xlVX3FID8-RaT-146">
          <mxGeometry relative="1" as="geometry" />
        </mxCell>
        <mxCell id="0AfvxG6xlVX3FID8-RaT-141" value="" style="ellipse;whiteSpace=wrap;html=1;aspect=fixed;" vertex="1" parent="1">
          <mxGeometry x="-492.63" y="910" width="30" height="30" as="geometry" />
        </mxCell>
        <mxCell id="0AfvxG6xlVX3FID8-RaT-146" value="&lt;font data-font-src=&quot;https://fonts.googleapis.com/css?family=Sarabun&quot; face=&quot;Sarabun&quot;&gt;End&lt;/font&gt;" style="ellipse;whiteSpace=wrap;html=1;" vertex="1" parent="1">
          <mxGeometry x="-543.5000000000001" y="980" width="130" height="30" as="geometry" />
        </mxCell>
      </root>
    </mxGraphModel>
  </diagram>
</mxfile>
